<svg width="32" height="32" viewBox="0 0 32 32" fill="none" xmlns="http://www.w3.org/2000/svg">
<path d="M15.9552 4.07581C2.26384 4.36262 -0.585075 22.7342 12.2218 27.1407C12.8195 27.2523 13.0427 26.8779 13.0427 26.5671V24.551C9.69454 25.2723 8.98651 22.9706 8.98651 22.9706C8.76212 22.25 8.28419 21.6352 7.64125 21.2401C6.55881 20.5057 7.72766 20.5177 7.72766 20.5177C8.11058 20.5677 8.47656 20.7064 8.79654 20.9226C9.11651 21.1388 9.38166 21.4267 9.57093 21.7633C9.91039 22.3542 10.4682 22.7883 11.1245 22.9721C11.7807 23.1559 12.4829 23.0748 13.0799 22.7462C13.1423 22.1461 13.4099 21.5881 13.8395 21.1657C11.1634 20.8657 8.36248 19.8456 8.36248 15.3155C8.34655 14.1352 8.79374 12.9957 9.60813 12.1413C9.23064 11.1127 9.27507 9.97646 9.73174 8.9804C9.73174 8.9804 10.7398 8.66839 13.0439 10.2249C15.0164 9.69053 17.0956 9.69053 19.0681 10.2249C21.3578 8.69359 22.3658 8.9792 22.3658 8.9792C22.8039 9.97284 22.8435 11.0949 22.4775 12.1161C23.2925 12.97 23.7394 14.1099 23.7219 15.2903C23.7219 19.8336 20.909 20.8417 18.2329 21.1285C19.4785 21.7885 18.9553 26.0319 19.0297 26.5551C19.0297 26.8659 19.2409 27.2391 19.8637 27.1275C32.6347 22.7594 29.6465 4.36262 15.9552 4.07581Z" fill="#377B7B"/>
</svg>
