<svg width="32" height="32" viewBox="0 0 32 32" fill="none" xmlns="http://www.w3.org/2000/svg">
<rect width="32" height="32" rx="16" fill="#3A6E8A"/>
<path d="M24.1428 10.3917C24.4916 10.5931 24.7813 10.8849 24.9821 11.2369C25.1829 11.589 25.2877 11.9888 25.2857 12.3954V19.8877C25.2857 20.7198 24.8357 21.4872 24.1093 21.8914L17.2522 26.2835C16.9122 26.4724 16.5306 26.5714 16.1428 26.5714C15.755 26.5714 15.3735 26.4724 15.0335 26.2835L8.17638 21.8914C7.82135 21.6943 7.52496 21.4045 7.31808 21.0521C7.11119 20.6997 7.00135 20.2976 7 19.8877V12.3944C7 11.5622 7.45003 10.7959 8.17638 10.3917L15.0335 6.29787C15.3835 6.10248 15.7767 6 16.1764 6C16.576 6 16.9692 6.10248 17.3192 6.29787L24.1764 10.3917H24.1428Z" stroke="#FEFEFE" stroke-width="1.5" stroke-linecap="round" stroke-linejoin="round"/>
<path d="M20.1428 13.3486C20.3179 13.4497 20.4631 13.5954 20.5634 13.7709C20.6638 13.9463 20.7159 14.1453 20.7143 14.3475V18.0823C20.7142 18.2862 20.6595 18.4863 20.556 18.6619C20.4526 18.8376 20.304 18.9823 20.1257 19.0812L16.6971 21.272C16.5275 21.3661 16.3368 21.4154 16.1428 21.4154C15.9489 21.4154 15.7582 21.3661 15.5886 21.272L12.16 19.0812C11.9819 18.9824 11.8334 18.8378 11.7299 18.6624C11.6264 18.487 11.5717 18.2871 11.5714 18.0835V14.3475C11.5714 14.1437 11.6259 13.9437 11.7291 13.7681C11.8324 13.5924 11.9808 13.4476 12.1588 13.3486L15.5874 11.3075C15.9428 11.1098 16.376 11.1098 16.7303 11.3075L20.1588 13.3498L20.1428 13.3486Z" stroke="#FEFEFE" stroke-width="1.5" stroke-linecap="round" stroke-linejoin="round"/>
<path d="M16.1428 26.5714V16.2857M16.1428 16.2857L7.57141 11.1429M16.1428 16.2857L24.7143 11.1429M16.1428 6V11.1429M24.7143 20.8571L20.7143 18.5714M11.5714 18.5714L7.57141 20.8571" stroke="#FEFEFE" stroke-width="1.5" stroke-linecap="round" stroke-linejoin="round"/>
</svg>
