<svg width="32" height="32" viewBox="0 0 32 32" fill="none" xmlns="http://www.w3.org/2000/svg">
<path d="M13.6857 19.5786L19.8766 16L13.6857 12.4215V19.5786ZM27.4751 10.2385C27.6302 10.7992 27.7376 11.5507 27.8091 12.505C27.8926 13.4592 27.9284 14.2823 27.9284 14.998L28 16C28 18.6124 27.8091 20.5329 27.4751 21.7615C27.1769 22.8351 26.4851 23.527 25.4115 23.8252C24.8509 23.9803 23.825 24.0876 22.2504 24.1592C20.6997 24.2427 19.2802 24.2785 17.9681 24.2785L16.0714 24.35C11.0733 24.35 7.95997 24.1592 6.73133 23.8252C5.65775 23.527 4.96589 22.8351 4.66768 21.7615C4.51261 21.2009 4.40525 20.4494 4.33368 19.4951C4.25018 18.5408 4.21439 17.7178 4.21439 17.002L4.14282 16C4.14282 13.3877 4.33368 11.4672 4.66768 10.2385C4.96589 9.16496 5.65775 8.4731 6.73133 8.17488C7.29197 8.01981 8.31783 7.91245 9.8924 7.84088C11.4431 7.75738 12.8626 7.7216 14.1748 7.7216L16.0714 7.65002C21.0695 7.65002 24.1829 7.84088 25.4115 8.17488C26.4851 8.4731 27.1769 9.16496 27.4751 10.2385Z" fill="#F5FBFF"/>
<path d="M13.6857 19.5786L19.8766 16L13.6857 12.4215V19.5786ZM27.4751 10.2385C27.6302 10.7992 27.7376 11.5507 27.8091 12.505C27.8926 13.4592 27.9284 14.2823 27.9284 14.998L28 16C28 18.6124 27.8091 20.5329 27.4751 21.7615C27.1769 22.8351 26.4851 23.527 25.4115 23.8252C24.8509 23.9803 23.825 24.0876 22.2504 24.1592C20.6997 24.2427 19.2802 24.2785 17.9681 24.2785L16.0714 24.35C11.0733 24.35 7.95997 24.1592 6.73133 23.8252C5.65775 23.527 4.96589 22.8351 4.66768 21.7615C4.51261 21.2009 4.40525 20.4494 4.33368 19.4951C4.25018 18.5408 4.21439 17.7178 4.21439 17.002L4.14282 16C4.14282 13.3877 4.33368 11.4672 4.66768 10.2385C4.96589 9.16496 5.65775 8.4731 6.73133 8.17488C7.29197 8.01981 8.31783 7.91245 9.8924 7.84088C11.4431 7.75738 12.8626 7.7216 14.1748 7.7216L16.0714 7.65002C21.0695 7.65002 24.1829 7.84088 25.4115 8.17488C26.4851 8.4731 27.1769 9.16496 27.4751 10.2385Z" fill="#F5FBFF"/>
</svg>
