<svg width="32" height="32" viewBox="0 0 32 32" fill="none" xmlns="http://www.w3.org/2000/svg">
<rect width="32" height="32" rx="16" fill="#3A6E8A"/>
<path d="M11.1522 14.0678C11.5278 14.4486 11.7465 14.9464 11.8816 15.4442C12.1452 16.4115 12.1452 17.6078 12.1452 18.5326V18.5802C12.1452 21.2274 11.65 22.7993 11.0892 23.7345C10.8767 24.1022 10.5985 24.4279 10.2685 24.6953C10.1372 24.7969 9.99483 24.8832 9.84403 24.9526C9.84403 24.9526 9.68067 25.0118 9.57262 25.0118C9.47989 25.0044 9.38859 24.9845 9.30121 24.9526C9.15041 24.8832 9.008 24.7969 8.87673 24.6953C8.54672 24.4279 8.26856 24.1022 8.05606 23.7345C7.49523 22.8006 7 21.2274 7 18.5802V18.5339C7 17.6078 7 16.4128 7.26369 15.4429C7.39876 14.9464 7.61743 14.4486 7.99303 14.0665C7.38589 13.4916 7 12.5757 7 11.5055C7 11.0862 7.11191 10.5858 7.26627 10.124C7.42062 9.66221 7.63672 9.18242 7.88627 8.79653C8.18341 8.29487 8.60146 7.87424 8.92561 7.59125C9.10398 7.43574 9.2894 7.28852 9.48129 7.15005L9.51988 7.12432L9.53146 7.11532L9.53532 7.11275L9.53789 7.11146C9.65589 7.03115 9.79724 6.99238 9.93969 7.00124C10.0821 7.0101 10.2176 7.0661 10.3247 7.16041C10.4319 7.25472 10.5046 7.38199 10.5314 7.52217C10.5583 7.66235 10.5377 7.80748 10.473 7.9347C10.4617 7.9718 10.4561 8.0104 10.4563 8.04918C10.4563 8.13022 10.4769 8.28457 10.6711 8.47752C10.765 8.57142 10.8371 8.63831 10.9155 8.71163C10.9798 8.7708 11.048 8.83254 11.1342 8.91744C11.3014 9.07694 11.4777 9.26474 11.6359 9.50014C11.9639 9.9928 12.1452 10.6089 12.1452 11.5055C12.1452 12.5757 11.7594 13.4903 11.1522 14.0678ZM9.57262 14.7213C9.25105 14.7213 9.0581 14.8216 8.91275 14.9657C8.75067 15.129 8.61046 15.394 8.50498 15.7812C8.29146 16.5671 8.28631 17.5988 8.28631 18.5802C8.28631 21.0782 8.75582 22.4006 9.15972 23.0733C9.31407 23.3306 9.45943 23.4965 9.57262 23.6007C9.73509 23.4458 9.87418 23.2682 9.98553 23.0733C10.3894 22.3993 10.8589 21.0782 10.8589 18.5802C10.8589 17.5988 10.8538 16.5671 10.6403 15.7812C10.5348 15.3953 10.3946 15.129 10.2325 14.9657C10.0871 14.8216 9.89291 14.7213 9.57262 14.7213ZM8.28631 11.5055C8.28631 12.8844 9.07739 13.435 9.57262 13.435C10.0679 13.435 10.8589 12.8844 10.8589 11.5055C10.8589 10.7942 10.7187 10.4456 10.5644 10.214C10.4703 10.079 10.362 9.95438 10.2415 9.8423L10.082 9.69309C9.97307 9.59332 9.86586 9.49169 9.76042 9.38823C9.6201 9.24869 9.49938 9.09075 9.40154 8.91873C9.23787 9.09094 9.09378 9.28075 8.97192 9.4847C8.79183 9.76126 8.61689 10.1407 8.48698 10.5318C8.3532 10.9305 8.28631 11.283 8.28631 11.5055ZM14.7153 19.8318C14.2694 19.782 13.8308 19.6806 13.4084 19.5295C13.4238 19.2071 13.4316 18.8735 13.4316 18.5288V18.148C13.8303 18.3371 14.2625 18.4696 14.7153 18.5339V16.0076C14.7153 15.3253 14.9863 14.6709 15.4688 14.1885C15.9513 13.706 16.6056 13.435 17.2879 13.435H19.8155C19.7132 12.7238 19.4422 12.0474 19.025 11.4623C18.6079 10.8773 18.0567 10.4006 17.4177 10.0721C16.7787 9.74353 16.0703 9.57274 15.3518 9.57394C14.6332 9.57515 13.9254 9.74832 13.2875 10.079C13.1864 9.65845 13.0197 9.25648 12.7935 8.88785C13.6272 8.47583 14.5479 8.27074 15.4777 8.28994C16.4074 8.30914 17.3189 8.55207 18.1348 8.99817C18.9508 9.44426 19.6473 10.0804 20.1653 10.8527C20.6833 11.625 21.0077 12.5108 21.1108 13.435H22.4319C23.1142 13.435 23.7685 13.706 24.251 14.1885C24.7335 14.6709 25.0045 15.3253 25.0045 16.0076V21.1528C25.0045 21.8351 24.7335 22.4895 24.251 22.972C23.7685 23.4544 23.1142 23.7255 22.4319 23.7255H17.2866C16.6043 23.7255 15.95 23.4544 15.4675 22.972C14.9851 22.4895 14.714 21.8351 14.714 21.1528L14.7153 19.8318ZM21.1121 14.7213C20.9664 16.0265 20.3812 17.2434 19.4525 18.1721C18.5238 19.1008 17.3069 19.6861 16.0016 19.8318V21.1528C16.0016 21.494 16.1371 21.8212 16.3784 22.0624C16.6196 22.3036 16.9468 22.4391 17.2879 22.4391H22.4332C22.7743 22.4391 23.1015 22.3036 23.3427 22.0624C23.584 21.8212 23.7195 21.494 23.7195 21.1528V16.0076C23.7195 15.6664 23.584 15.3393 23.3427 15.098C23.1015 14.8568 22.7743 14.7213 22.4332 14.7213H21.1121ZM19.8155 14.7213H17.2879C16.9468 14.7213 16.6196 14.8568 16.3784 15.098C16.1371 15.3393 16.0016 15.6664 16.0016 16.0076V18.5352C16.9639 18.3965 17.8554 17.9501 18.5429 17.2626C19.2304 16.5751 19.6768 15.6836 19.8155 14.7213Z" fill="#FEFEFE"/>
</svg>
