<svg width="32" height="32" viewBox="0 0 32 32" fill="none" xmlns="http://www.w3.org/2000/svg">
<path d="M9.97418 14.5933V12.6179C9.97418 12.501 9.97418 12.4542 10.1268 12.4542C11.4351 12.4542 12.4985 12.3767 13.0265 12.6881C13.5557 12.9982 13.5779 13.4266 13.5865 13.5546C13.5951 13.6826 13.5914 13.8659 13.3453 14.3127C13.0991 14.7595 11.9976 14.7681 11.2025 14.7681H10.1502C10.021 14.7681 9.97418 14.7213 9.97418 14.5933ZM13.6 16.6635C13.7219 16.8191 13.8089 16.9991 13.8552 17.1913C13.9014 17.3834 13.9057 17.5833 13.8679 17.7773C13.8301 17.9713 13.751 18.155 13.636 18.3157C13.5209 18.4765 13.3727 18.6106 13.2013 18.709C12.9495 18.815 12.6794 18.8706 12.4062 18.8727H10.1379C10.021 18.8727 9.97418 18.8727 9.97418 18.7213V16.3829C9.97418 16.2659 9.97418 16.2192 10.1268 16.2192H11.6345C12.5699 16.2192 13.1545 16.1379 13.6 16.6635Z" fill="#377B7B"/>
<path d="M21.8326 15.5803C21.7699 15.4324 21.6747 15.3006 21.5541 15.1945C21.4336 15.0884 21.2907 15.0108 21.136 14.9674C20.8269 14.8829 20.5034 14.865 20.1868 14.9149C19.8703 14.9648 19.5679 15.0812 19.2997 15.2566C19.0324 15.5267 18.8597 15.876 18.8074 16.2523C18.8074 16.384 18.8074 16.4086 18.9637 16.4086H21.8806C22.0246 16.4086 22.0246 16.4086 22.0123 16.2277C21.9985 16.0015 21.9381 15.7809 21.8326 15.5803ZM21.8326 15.5803C21.7699 15.4324 21.6735 15.3006 21.5529 15.1945C21.4323 15.0884 21.2907 15.0108 21.136 14.9674C20.8269 14.8829 20.5034 14.865 20.1868 14.9149C19.8703 14.9648 19.5679 15.0812 19.2997 15.2566C19.0324 15.5267 18.8585 15.876 18.8062 16.2523C18.8062 16.384 18.8062 16.4086 18.9625 16.4086H21.8806C22.0246 16.4086 22.0246 16.4086 22.0123 16.2277C21.9985 16.0015 21.9356 15.7809 21.8302 15.5803M23.2 4H8.8C7.52696 4 6.30606 4.50571 5.40589 5.40589C4.50571 6.30606 4 7.52696 4 8.8V23.2C4 24.473 4.50571 25.6939 5.40589 26.5941C6.30606 27.4943 7.52696 28 8.8 28H23.2C24.473 28 25.6939 27.4943 26.5941 26.5941C27.4943 25.6939 28 24.473 28 23.2V8.8C28 7.52696 27.4943 6.30606 26.5941 5.40589C25.6939 4.50571 24.473 4 23.2 4ZM18.496 11.6431C18.496 11.5483 18.496 11.5114 18.6043 11.5114H22.4923V12.5206C22.4923 12.5206 22.496 12.592 22.432 12.592H18.6646C18.496 12.592 18.496 12.592 18.496 12.4246V11.6431ZM14.896 20.464C13.4191 21.2677 10.9366 20.944 7.99631 20.944V10.9957H12.688C13.888 10.9957 15.3157 11.296 15.6997 12.5674C15.8991 13.1227 15.887 13.732 15.6656 14.2789C15.4442 14.8258 15.0292 15.272 14.4997 15.5323C14.9878 15.7129 15.4139 16.0296 15.7276 16.4448C16.0413 16.86 16.2295 17.3564 16.2699 17.8753C16.3103 18.3941 16.2012 18.9137 15.9555 19.3724C15.7099 19.8312 15.3379 20.21 14.8837 20.464H14.896ZM23.8363 17.632H19.0363C18.9046 17.632 18.784 17.7034 18.8074 17.872C18.9514 18.5797 19.2751 19.3243 20.0086 19.4326C20.3959 19.5479 20.8107 19.5302 21.1868 19.3823C21.5629 19.2344 21.8786 18.9648 22.0837 18.6166C22.0837 18.6166 22.144 18.544 22.1797 18.544H23.7403C23.7403 18.544 23.8363 18.544 23.8117 18.6277C23.6471 19.0937 23.4036 19.528 23.0917 19.9114C22.6746 20.3098 22.1713 20.6067 21.6208 20.7791C21.0704 20.9516 20.4876 20.9948 19.9178 20.9055C19.3479 20.8162 18.8063 20.5968 18.335 20.2643C17.8636 19.9318 17.4753 19.4952 17.2 18.9883C17.0307 18.6503 16.9251 18.284 16.8886 17.9077C16.6746 16.962 16.8382 15.97 17.3446 15.1431C17.851 14.3162 18.6603 13.7197 19.6 13.4806C22.3237 12.8923 24.0517 14.7643 24.0517 17.4043C24.0557 17.4352 24.0526 17.4665 24.0426 17.496C24.0326 17.5255 24.0159 17.5522 23.9939 17.5742C23.9719 17.5962 23.9452 17.6129 23.9157 17.6229C23.8862 17.6329 23.8549 17.636 23.824 17.632H23.8363ZM21.1483 14.9674C20.8395 14.8817 20.5157 14.8641 20.1994 14.9157C19.8831 14.9649 19.6 15.0252 19.312 15.2566C19.024 15.4868 18.8714 15.8757 18.8197 16.2523C18.8197 16.384 18.8197 16.4086 18.976 16.4086H21.8806C22.0246 16.4086 22.0246 16.4086 22.0123 16.2277C21.9985 16.0015 21.9381 15.7809 21.8326 15.5803C21.7699 15.4324 21.6747 15.3006 21.5541 15.1945C21.4336 15.0884 21.2907 15.0108 21.136 14.9674H21.1483Z" fill="#377B7B"/>
</svg>
