<svg width="32" height="32" viewBox="0 0 32 32" fill="none" xmlns="http://www.w3.org/2000/svg">
<path fill-rule="evenodd" clip-rule="evenodd" d="M21.3766 4.5H10.6229C8.86705 4.50205 7.18368 5.2005 5.94208 6.44212C4.70048 7.68373 4.00205 9.36714 4 11.1231V21.8769C4.00194 23.6329 4.70033 25.3164 5.94195 26.558C7.18358 27.7997 8.86702 28.4981 10.6229 28.5H21.3766C23.1326 28.4981 24.8161 27.7997 26.0578 26.558C27.2995 25.3164 27.9979 23.6329 28 21.8769V11.1231C27.9979 9.36707 27.2995 7.68359 26.0578 6.44196C24.8161 5.20033 23.1326 4.50194 21.3766 4.5ZM25.8704 21.8769C25.869 23.0684 25.3951 24.2106 24.5527 25.0531C23.7102 25.8955 22.568 26.3694 21.3766 26.3708H10.6229C9.4315 26.3695 8.28923 25.8957 7.44676 25.0532C6.60429 24.2107 6.13044 23.0684 6.12919 21.8769V11.1231C6.13055 9.93164 6.60444 8.78941 7.44689 7.94695C8.28933 7.10449 9.43154 6.63059 10.6229 6.62922H21.3766C22.568 6.63059 23.7102 7.10449 24.5527 7.94695C25.3951 8.78941 25.869 9.93164 25.8704 11.1231V21.8769ZM15.9997 10.3157C14.7766 10.3157 13.581 10.6784 12.564 11.3579C11.547 12.0374 10.7544 13.0033 10.2863 14.1333C9.81829 15.2633 9.69582 16.5067 9.93443 17.7063C10.173 18.9059 10.762 20.0079 11.6269 20.8727C12.4917 21.7376 13.5936 22.3266 14.7932 22.5652C15.9928 22.8038 17.2362 22.6814 18.3662 22.2133C19.4962 21.7452 20.462 20.9526 21.1416 19.9356C21.8211 18.9186 22.1838 17.723 22.1838 16.4999C22.1819 14.8603 21.5298 13.2884 20.3705 12.129C19.2111 10.9696 17.6392 10.3175 15.9997 10.3157ZM15.9997 20.5544C15.1978 20.5543 14.414 20.3164 13.7473 19.8709C13.0806 19.4253 12.561 18.792 12.2542 18.0512C11.9474 17.3103 11.8671 16.4951 12.0236 15.7086C12.1801 14.9221 12.5663 14.1997 13.1333 13.6327C13.7004 13.0657 14.4228 12.6796 15.2093 12.5232C15.9958 12.3668 16.811 12.4471 17.5518 12.754C18.2926 13.0609 18.9258 13.5806 19.3713 14.2473C19.8168 14.9141 20.0546 15.698 20.0546 16.4999C20.0533 17.5749 19.6257 18.6055 18.8655 19.3656C18.1053 20.1257 17.0747 20.5532 15.9997 20.5544ZM21.4534 8.86736C21.7323 8.63816 22.0821 8.51275 22.4431 8.5125C22.8571 8.51301 23.2542 8.67729 23.5476 8.96947C23.8029 9.22472 23.9618 9.56058 23.9972 9.91985C24.0327 10.2791 23.9425 10.6396 23.742 10.9398C23.5415 11.24 23.2431 11.4614 22.8977 11.5663C22.5523 11.6713 22.1811 11.6532 21.8476 11.5151C21.514 11.3771 21.2386 11.1277 21.0682 10.8094C20.8979 10.4911 20.8432 10.1236 20.9134 9.76949C20.9837 9.41537 21.1745 9.09656 21.4534 8.86736Z" fill="#F5FBFF"/>
<path fill-rule="evenodd" clip-rule="evenodd" d="M21.3766 4.5H10.6229C8.86705 4.50205 7.18368 5.2005 5.94208 6.44212C4.70048 7.68373 4.00205 9.36714 4 11.1231V21.8769C4.00194 23.6329 4.70033 25.3164 5.94195 26.558C7.18358 27.7997 8.86702 28.4981 10.6229 28.5H21.3766C23.1326 28.4981 24.8161 27.7997 26.0578 26.558C27.2995 25.3164 27.9979 23.6329 28 21.8769V11.1231C27.9979 9.36707 27.2995 7.68359 26.0578 6.44196C24.8161 5.20033 23.1326 4.50194 21.3766 4.5ZM25.8704 21.8769C25.869 23.0684 25.3951 24.2106 24.5527 25.0531C23.7102 25.8955 22.568 26.3694 21.3766 26.3708H10.6229C9.4315 26.3695 8.28923 25.8957 7.44676 25.0532C6.60429 24.2107 6.13044 23.0684 6.12919 21.8769V11.1231C6.13055 9.93164 6.60444 8.78941 7.44689 7.94695C8.28933 7.10449 9.43154 6.63059 10.6229 6.62922H21.3766C22.568 6.63059 23.7102 7.10449 24.5527 7.94695C25.3951 8.78941 25.869 9.93164 25.8704 11.1231V21.8769ZM15.9997 10.3157C14.7766 10.3157 13.581 10.6784 12.564 11.3579C11.547 12.0374 10.7544 13.0033 10.2863 14.1333C9.81829 15.2633 9.69582 16.5067 9.93443 17.7063C10.173 18.9059 10.762 20.0079 11.6269 20.8727C12.4917 21.7376 13.5936 22.3266 14.7932 22.5652C15.9928 22.8038 17.2362 22.6814 18.3662 22.2133C19.4962 21.7452 20.462 20.9526 21.1416 19.9356C21.8211 18.9186 22.1838 17.723 22.1838 16.4999C22.1819 14.8603 21.5298 13.2884 20.3705 12.129C19.2111 10.9696 17.6392 10.3175 15.9997 10.3157ZM15.9997 20.5544C15.1978 20.5543 14.414 20.3164 13.7473 19.8709C13.0806 19.4253 12.561 18.792 12.2542 18.0512C11.9474 17.3103 11.8671 16.4951 12.0236 15.7086C12.1801 14.9221 12.5663 14.1997 13.1333 13.6327C13.7004 13.0657 14.4228 12.6796 15.2093 12.5232C15.9958 12.3668 16.811 12.4471 17.5518 12.754C18.2926 13.0609 18.9258 13.5806 19.3713 14.2473C19.8168 14.9141 20.0546 15.698 20.0546 16.4999C20.0533 17.5749 19.6257 18.6055 18.8655 19.3656C18.1053 20.1257 17.0747 20.5532 15.9997 20.5544ZM21.4534 8.86736C21.7323 8.63816 22.0821 8.51275 22.4431 8.5125C22.8571 8.51301 23.2542 8.67729 23.5476 8.96947C23.8029 9.22472 23.9618 9.56058 23.9972 9.91985C24.0327 10.2791 23.9425 10.6396 23.742 10.9398C23.5415 11.24 23.2431 11.4614 22.8977 11.5663C22.5523 11.6713 22.1811 11.6532 21.8476 11.5151C21.514 11.3771 21.2386 11.1277 21.0682 10.8094C20.8979 10.4911 20.8432 10.1236 20.9134 9.76949C20.9837 9.41537 21.1745 9.09656 21.4534 8.86736Z" fill="#F5FBFF"/>
</svg>
