<svg width="32" height="32" viewBox="0 0 32 32" fill="none" xmlns="http://www.w3.org/2000/svg">
<rect width="32" height="32" rx="16" fill="#3A6E8A"/>
<path d="M23.4571 14.4313C23.4571 10.9278 23.4571 9.17691 22.3856 8.088C21.3141 6.99909 19.5906 7 16.1429 7H14.3143C10.8665 7 9.14217 7 8.07154 8.088C7.00091 9.176 7 10.9278 7 14.4313C7 17.9349 7 19.6857 8.07154 20.7746C8.50126 21.2107 9.0352 21.4722 9.74286 21.6286" stroke="#FEFEFE" stroke-width="1.2" stroke-linecap="round" stroke-linejoin="round"/>
<path d="M25.2857 21.1714C25.2857 19.4571 25.2857 18.6004 24.8496 17.9988C24.7086 17.8048 24.538 17.6342 24.344 17.4932C23.7424 17.0571 22.8857 17.0571 21.1714 17.0571H16.6C14.8857 17.0571 14.029 17.0571 13.4274 17.4932C13.2334 17.6342 13.0628 17.8048 12.9218 17.9988C12.4857 18.6014 12.4857 19.458 12.4857 21.1714C12.4857 22.8848 12.4857 23.7424 12.9218 24.344C13.0631 24.5381 13.234 24.7087 13.4283 24.8496C14.029 25.2857 14.8857 25.2857 16.6 25.2857H21.1714C22.8857 25.2857 23.7424 25.2857 24.344 24.8496C24.538 24.7086 24.7086 24.538 24.8496 24.344C25.2857 23.7424 25.2857 22.8857 25.2857 21.1714Z" stroke="#FEFEFE" stroke-width="1.2" stroke-linecap="round" stroke-linejoin="round"/>
<path d="M20.2572 19.8L21.0983 20.525C21.4521 20.8294 21.6286 20.9821 21.6286 21.1714C21.6286 21.3606 21.4521 21.5133 21.0983 21.8178L20.2572 22.5428M17.5143 19.8L16.6732 20.525C16.3193 20.8294 16.1429 20.9821 16.1429 21.1714C16.1429 21.3606 16.3193 21.5133 16.6732 21.8178L17.5143 22.5428M7.45715 10.6571H23" stroke="#FEFEFE" stroke-width="1.2" stroke-linecap="round" stroke-linejoin="round"/>
</svg>
