<svg width="1161" height="457" viewBox="0 0 1161 457" fill="none" xmlns="http://www.w3.org/2000/svg">
<path d="M228.839 352.989C222.562 352.989 216.924 351.826 211.925 349.501C207.043 347.06 203.149 343.805 200.243 339.737C197.337 335.668 195.884 331.076 195.884 325.961C195.884 317.708 199.255 311.198 205.997 306.432C212.739 301.549 221.69 298.236 232.85 296.492L254.646 293.179V290.738C254.646 286.553 253.774 283.357 252.03 281.148C250.287 278.939 247.09 277.835 242.44 277.835C239.185 277.835 236.511 278.474 234.419 279.753C232.443 281.032 230.874 282.775 229.711 284.984C228.665 286.495 227.212 287.251 225.352 287.251H205.823C204.544 287.251 203.556 286.902 202.858 286.205C202.161 285.391 201.87 284.461 201.986 283.415C201.986 281.322 202.742 278.939 204.253 276.266C205.881 273.476 208.322 270.744 211.577 268.07C214.832 265.397 219.016 263.188 224.131 261.444C229.246 259.701 235.407 258.829 242.614 258.829C250.17 258.829 256.622 259.701 261.969 261.444C267.317 263.188 271.618 265.629 274.873 268.768C278.244 271.906 280.743 275.626 282.37 279.927C283.998 284.112 284.812 288.762 284.812 293.877V346.886C284.812 348.164 284.347 349.211 283.417 350.024C282.603 350.838 281.615 351.245 280.452 351.245H260.226C258.947 351.245 257.901 350.838 257.087 350.024C256.273 349.211 255.866 348.164 255.866 346.886V340.783C254.355 342.992 252.321 345.026 249.764 346.886C247.206 348.746 244.184 350.199 240.696 351.245C237.325 352.407 233.373 352.989 228.839 352.989ZM237.035 333.111C240.406 333.111 243.428 332.413 246.102 331.018C248.892 329.507 251.042 327.24 252.553 324.218C254.181 321.079 254.995 317.185 254.995 312.535V310.094L240.173 312.709C234.71 313.639 230.699 315.093 228.142 317.069C225.701 318.929 224.48 321.137 224.48 323.695C224.48 325.671 225.061 327.356 226.224 328.751C227.386 330.146 228.897 331.251 230.757 332.064C232.617 332.762 234.71 333.111 237.035 333.111ZM318.506 382.05C317.46 382.05 316.588 381.701 315.89 381.004C315.193 380.306 314.844 379.435 314.844 378.388C314.844 378.156 314.844 377.807 314.844 377.342C314.961 376.993 315.135 376.587 315.367 376.122L328.968 343.34L295.49 264.176C295.142 263.362 294.967 262.665 294.967 262.084C295.2 261.037 295.665 260.166 296.362 259.468C297.06 258.654 297.932 258.248 298.978 258.248H318.855C320.366 258.248 321.47 258.654 322.168 259.468C322.865 260.166 323.388 260.979 323.737 261.909L343.789 312.651L364.191 261.909C364.656 260.979 365.237 260.166 365.934 259.468C366.748 258.654 367.911 258.248 369.422 258.248H388.951C389.997 258.248 390.869 258.654 391.567 259.468C392.38 260.166 392.787 260.979 392.787 261.909C392.787 262.491 392.613 263.246 392.264 264.176L342.918 378.388C342.569 379.318 341.988 380.132 341.174 380.83C340.36 381.643 339.198 382.05 337.687 382.05H318.506Z" fill="#F5FBFF" stroke="#F5FBFF" stroke-width="2.32492"/>
<path d="M603.491 350.664C596.865 350.664 590.936 349.153 585.705 346.13C580.59 343.108 576.58 338.69 573.674 332.878C570.768 326.95 569.314 319.742 569.314 311.256V262.607C569.314 261.328 569.721 260.282 570.535 259.468C571.349 258.654 572.395 258.248 573.674 258.248H595.47C596.748 258.248 597.795 258.654 598.608 259.468C599.422 260.282 599.829 261.328 599.829 262.607V310.21C599.829 321.602 604.944 327.298 615.173 327.298C619.94 327.298 623.718 325.845 626.507 322.939C629.414 319.917 630.867 315.674 630.867 310.21V262.607C630.867 261.328 631.274 260.282 632.087 259.468C632.901 258.654 633.947 258.248 635.226 258.248H657.022C658.301 258.248 659.347 258.654 660.161 259.468C660.974 260.282 661.381 261.328 661.381 262.607V344.561C661.381 345.84 660.974 346.886 660.161 347.699C659.347 348.513 658.301 348.92 657.022 348.92H636.795C635.633 348.92 634.587 348.513 633.657 347.699C632.843 346.886 632.436 345.84 632.436 344.561V337.935C629.414 342.12 625.461 345.316 620.579 347.525C615.813 349.618 610.117 350.664 603.491 350.664ZM686.251 348.92C684.972 348.92 683.926 348.513 683.112 347.699C682.299 346.886 681.892 345.84 681.892 344.561V229.477C681.892 228.198 682.299 227.152 683.112 226.338C683.926 225.524 684.972 225.117 686.251 225.117H706.826C708.105 225.117 709.151 225.524 709.965 226.338C710.779 227.152 711.186 228.198 711.186 229.477V344.561C711.186 345.84 710.779 346.886 709.965 347.699C709.151 348.513 708.105 348.92 706.826 348.92H686.251ZM778.167 348.92C770.727 348.92 764.275 347.758 758.812 345.433C753.464 342.991 749.338 339.272 746.431 334.273C743.525 329.158 742.072 322.59 742.072 314.569V281.09H728.471C727.193 281.09 726.088 280.683 725.158 279.869C724.345 279.056 723.938 278.009 723.938 276.731V262.607C723.938 261.328 724.345 260.282 725.158 259.468C726.088 258.654 727.193 258.248 728.471 258.248H742.072V229.477C742.072 228.198 742.479 227.152 743.293 226.338C744.223 225.524 745.269 225.117 746.431 225.117H766.658C767.937 225.117 768.983 225.524 769.797 226.338C770.611 227.152 771.017 228.198 771.017 229.477V258.248H792.813C794.092 258.248 795.138 258.654 795.952 259.468C796.766 260.282 797.173 261.328 797.173 262.607V276.731C797.173 278.009 796.766 279.056 795.952 279.869C795.138 280.683 794.092 281.09 792.813 281.09H771.017V312.128C771.017 316.081 771.773 319.219 773.284 321.544C774.795 323.869 777.353 325.031 780.956 325.031H794.383C795.662 325.031 796.708 325.438 797.522 326.252C798.335 327.066 798.742 328.112 798.742 329.391V344.561C798.742 345.84 798.335 346.886 797.522 347.699C796.708 348.513 795.662 348.92 794.383 348.92H778.167ZM846.482 350.664C839.856 350.664 833.927 349.153 828.696 346.13C823.582 343.108 819.571 338.69 816.665 332.878C813.759 326.95 812.306 319.742 812.306 311.256V262.607C812.306 261.328 812.713 260.282 813.526 259.468C814.34 258.654 815.386 258.248 816.665 258.248H838.461C839.74 258.248 840.786 258.654 841.6 259.468C842.413 260.282 842.82 261.328 842.82 262.607V310.21C842.82 321.602 847.935 327.298 858.165 327.298C862.931 327.298 866.709 325.845 869.499 322.939C872.405 319.917 873.858 315.674 873.858 310.21V262.607C873.858 261.328 874.265 260.282 875.078 259.468C875.892 258.654 876.938 258.248 878.217 258.248H900.013C901.292 258.248 902.338 258.654 903.152 259.468C903.966 260.282 904.372 261.328 904.372 262.607V344.561C904.372 345.84 903.966 346.886 903.152 347.699C902.338 348.513 901.292 348.92 900.013 348.92H879.786C878.624 348.92 877.578 348.513 876.648 347.699C875.834 346.886 875.427 345.84 875.427 344.561V337.935C872.405 342.12 868.452 345.316 863.57 347.525C858.804 349.618 853.108 350.664 846.482 350.664ZM929.242 348.92C927.963 348.92 926.917 348.513 926.103 347.699C925.29 346.886 924.883 345.84 924.883 344.561V262.607C924.883 261.444 925.29 260.456 926.103 259.642C926.917 258.712 927.963 258.248 929.242 258.248H949.294C950.573 258.248 951.619 258.712 952.433 259.642C953.247 260.456 953.654 261.444 953.654 262.607V269.581C956.792 265.978 960.512 263.188 964.813 261.212C969.231 259.236 974.171 258.248 979.635 258.248H987.307C988.469 258.248 989.457 258.654 990.271 259.468C991.201 260.282 991.666 261.328 991.666 262.607V280.567C991.666 281.729 991.201 282.775 990.271 283.705C989.457 284.519 988.469 284.926 987.307 284.926H970.393C965.627 284.926 961.907 286.263 959.234 288.936C956.676 291.494 955.397 295.156 955.397 299.922V344.561C955.397 345.84 954.932 346.886 954.002 347.699C953.189 348.513 952.143 348.92 950.864 348.92H929.242ZM1029.73 352.989C1023.46 352.989 1017.82 351.826 1012.82 349.501C1007.94 347.06 1004.04 343.805 1001.14 339.737C998.232 335.668 996.779 331.076 996.779 325.961C996.779 317.708 1000.15 311.198 1006.89 306.432C1013.63 301.549 1022.59 298.236 1033.74 296.492L1055.54 293.179V290.738C1055.54 286.553 1054.67 283.357 1052.93 281.148C1051.18 278.939 1047.98 277.835 1043.34 277.835C1040.08 277.835 1037.41 278.474 1035.31 279.753C1033.34 281.032 1031.77 282.775 1030.61 284.984C1029.56 286.495 1028.11 287.251 1026.25 287.251H1006.72C1005.44 287.251 1004.45 286.902 1003.75 286.205C1003.06 285.391 1002.77 284.461 1002.88 283.415C1002.88 281.322 1003.64 278.939 1005.15 276.266C1006.78 273.476 1009.22 270.744 1012.47 268.07C1015.73 265.397 1019.91 263.188 1025.03 261.444C1030.14 259.701 1036.3 258.829 1043.51 258.829C1051.07 258.829 1057.52 259.701 1062.86 261.444C1068.21 263.188 1072.51 265.629 1075.77 268.768C1079.14 271.906 1081.64 275.626 1083.27 279.927C1084.89 284.112 1085.71 288.762 1085.71 293.877V346.886C1085.71 348.164 1085.24 349.211 1084.31 350.024C1083.5 350.838 1082.51 351.245 1081.35 351.245H1061.12C1059.84 351.245 1058.8 350.838 1057.98 350.024C1057.17 349.211 1056.76 348.164 1056.76 346.886V340.783C1055.25 342.991 1053.22 345.026 1050.66 346.886C1048.1 348.746 1045.08 350.199 1041.59 351.245C1038.22 352.407 1034.27 352.989 1029.73 352.989ZM1037.93 333.111C1041.3 333.111 1044.32 332.413 1047 331.018C1049.79 329.507 1051.94 327.24 1053.45 324.218C1055.08 321.079 1055.89 317.185 1055.89 312.535V310.094L1041.07 312.709C1035.6 313.639 1031.59 315.092 1029.04 317.069C1026.6 318.929 1025.38 321.137 1025.38 323.695C1025.38 325.671 1025.96 327.356 1027.12 328.751C1028.28 330.146 1029.79 331.251 1031.65 332.064C1033.51 332.762 1035.6 333.111 1037.93 333.111Z" fill="#F5FBFF" stroke="#F5FBFF" stroke-width="2.32492"/>
<path d="M174.603 155.845V345.167C174.603 349.71 170.595 353.05 166.186 352.382C157.502 351.046 148.951 348.908 140.801 345.969C137.06 344.633 134.521 340.892 134.521 336.884V244.427C134.521 242.957 133.319 241.888 131.983 241.888H118.354C116.885 241.888 115.816 243.091 115.816 244.427V329.402C115.816 331.406 113.545 332.742 111.808 331.539C104.593 326.729 97.9125 321.385 91.6329 315.373C86.0214 309.895 80.8106 304.016 76.1344 297.603C74.9319 296 74.3975 293.996 74.3975 291.991V136.204C74.3975 134.601 74.9319 133.131 75.7335 131.795C85.2197 118.702 96.9772 107.345 110.338 98.2598C112.609 96.6565 115.682 98.3934 115.682 101.199V204.478C115.682 205.948 116.885 207.017 118.221 207.017H131.849C133.319 207.017 134.387 205.814 134.387 204.478V182.166C134.387 182.032 134.387 181.898 134.387 181.765C134.387 181.631 134.922 180.696 135.055 180.696C142.805 167.469 155.23 157.315 170.061 152.638C172.332 151.837 174.603 153.44 174.603 155.845Z" fill="#F5FBFF"/>
<path d="M547.842 181.284H496.402C494.131 181.284 491.993 179.948 490.925 177.81C478.365 151.756 451.911 133.853 421.448 133.853C421.181 133.853 421.048 133.853 420.78 133.853C416.238 133.853 411.695 134.254 407.42 135.189C394.994 137.46 383.504 142.938 373.884 150.554C371.212 152.692 367.337 150.821 367.337 147.347V89.0942C367.337 86.5557 368.94 84.2843 371.345 83.3491C382.702 79.0736 394.86 76.1342 407.42 74.9318C411.561 74.5309 415.837 74.3973 420.112 74.3973C420.38 74.3973 420.513 74.3973 420.78 74.3973C483.309 74.6646 536.084 116.885 552.785 174.603C553.854 177.944 551.315 181.284 547.842 181.284Z" fill="#F5FBFF"/>
<path d="M549.712 241.41C552.785 241.41 555.19 244.349 554.388 247.422C547.975 273.61 534.347 296.857 515.642 314.894C492.795 336.94 462.466 351.236 428.797 353.374C424.388 353.641 420.647 350.167 420.647 345.758V296.457C420.647 293.651 422.784 291.513 425.59 291.379C454.85 289.776 479.835 271.605 491.593 245.953C492.929 243.147 495.601 241.41 498.674 241.41H549.712Z" fill="#F5FBFF"/>
</svg>
